RBDS027runT35_grf
version=1
nRows=37
nColumns=19
inDegrees=no
endheader
time	ground_force_r_vx	ground_force_r_vy	ground_force_r_vz	ground_force_r_px	ground_force_r_py	ground_force_r_pz	ground_force_r_mx	ground_force_r_my	ground_force_r_mz	ground_force_l_vx	ground_force_l_vy	ground_force_l_vz	ground_force_l_px	ground_force_l_py	ground_force_l_pz	ground_force_l_mx	ground_force_l_my	ground_force_l_mz
     14.99900000	    -86.16801289	   1645.06669299	    -91.32236417	      2.12285067	      0.00000000	      1.11613802	      0.00000000	     11.29774851	      0.00000000	      0.00000000	      0.00000000	      0.00000000	      0.00000000	      0.00000000	      0.00000000	      0.00000000	      0.00000000	      0.00000000
     15.00000000	    -81.10826901	   1645.11427725	    -91.36281493	      2.12014911	      0.00000000	      1.11616824	      0.00000000	     11.25838104	      0.00000000	      0.00000000	      0.00000000	      0.00000000	      0.00000000	      0.00000000	      0.00000000	      0.00000000	      0.00000000	      0.00000000
     15.00100000	    -75.83009236	   1643.94836567	    -91.21572809	      2.11739762	      0.00000000	      1.11618514	      0.00000000	     11.19989012	      0.00000000	      0.00000000	      0.00000000	      0.00000000	      0.00000000	      0.00000000	      0.00000000	      0.00000000	      0.00000000	      0.00000000
     15.00200000	    -70.55191571	   1642.78245410	    -91.06864124	      2.11464613	      0.00000000	      1.11620203	      0.00000000	     11.14139920	      0.00000000	      0.00000000	      0.00000000	      0.00000000	      0.00000000	      0.00000000	      0.00000000	      0.00000000	      0.00000000	      0.00000000
     15.00300000	    -65.27373905	   1641.61654252	    -90.92155439	      2.11189463	      0.00000000	      1.11621893	      0.00000000	     11.08290829	      0.00000000	      0.00000000	      0.00000000	      0.00000000	      0.00000000	      0.00000000	      0.00000000	      0.00000000	      0.00000000	      0.00000000
     15.00400000	    -59.87273774	   1639.63332096	    -90.64968957	      2.10910768	      0.00000000	      1.11622736	      0.00000000	     11.01243062	      0.00000000	      0.00000000	      0.00000000	      0.00000000	      0.00000000	      0.00000000	      0.00000000	      0.00000000	      0.00000000	      0.00000000
     15.00500000	    -54.41032409	   1637.24144441	    -90.31543577	      2.10630301	      0.00000000	      1.11623156	      0.00000000	     10.93595957	      0.00000000	      0.00000000	      0.00000000	      0.00000000	      0.00000000	      0.00000000	      0.00000000	      0.00000000	      0.00000000	      0.00000000
     15.00600000	    -48.94791044	   1634.84956786	    -89.98118198	      2.10349833	      0.00000000	      1.11623576	      0.00000000	     10.85948852	      0.00000000	      0.00000000	      0.00000000	      0.00000000	      0.00000000	      0.00000000	      0.00000000	      0.00000000	      0.00000000	      0.00000000
     15.00700000	    -43.43608443	   1632.04676417	    -89.58531751	      2.10067444	      0.00000000	      1.11623601	      0.00000000	     10.77746969	      0.00000000	      0.00000000	      0.00000000	      0.00000000	      0.00000000	      0.00000000	      0.00000000	      0.00000000	      0.00000000	      0.00000000
     15.00800000	    -37.82543371	   1628.42210621	    -89.06623171	      2.09781211	      0.00000000	      1.11622835	      0.00000000	     10.68435530	      0.00000000	      0.00000000	      0.00000000	      0.00000000	      0.00000000	      0.00000000	      0.00000000	      0.00000000	      0.00000000	      0.00000000
     15.00900000	    -32.21478298	   1624.79744825	    -88.54714591	      2.09494979	      0.00000000	      1.11622070	      0.00000000	     10.59124091	      0.00000000	      0.00000000	      0.00000000	      0.00000000	      0.00000000	      0.00000000	      0.00000000	      0.00000000	      0.00000000	      0.00000000
     15.01000000	    -26.60413226	   1621.17279028	    -88.02806011	      2.09208746	      0.00000000	      1.11621305	      0.00000000	     10.49812652	      0.00000000	      0.00000000	      0.00000000	      0.00000000	      0.00000000	      0.00000000	      0.00000000	      0.00000000	      0.00000000	      0.00000000
     15.01100000	    -20.88358035	   1616.31426175	    -87.32869409	      2.08916224	      0.00000000	      1.11619457	      0.00000000	     10.38983354	      0.00000000	      0.00000000	      0.00000000	      0.00000000	      0.00000000	      0.00000000	      0.00000000	      0.00000000	      0.00000000	      0.00000000
     15.01200000	    -15.16302843	   1611.45573321	    -86.62932806	      2.08623701	      0.00000000	      1.11617610	      0.00000000	     10.28154056	      0.00000000	      0.00000000	      0.00000000	      0.00000000	      0.00000000	      0.00000000	      0.00000000	      0.00000000	      0.00000000	      0.00000000
     15.01300000	     -9.44247651	   1606.59720468	    -85.92996204	      2.08331178	      0.00000000	      1.11615762	      0.00000000	     10.17324759	      0.00000000	      0.00000000	      0.00000000	      0.00000000	      0.00000000	      0.00000000	      0.00000000	      0.00000000	      0.00000000	      0.00000000
     15.01400000	     -3.67612350	   1600.91919783	    -85.11509010	      2.08034094	      0.00000000	      1.11613273	      0.00000000	     10.05585656	      0.00000000	      0.00000000	      0.00000000	      0.00000000	      0.00000000	      0.00000000	      0.00000000	      0.00000000	      0.00000000	      0.00000000
     15.01500000	      2.11313007	   1594.83145183	    -84.24246521	      2.07734729	      0.00000000	      1.11610463	      0.00000000	      9.93391651	      0.00000000	      0.00000000	      0.00000000	      0.00000000	      0.00000000	      0.00000000	      0.00000000	      0.00000000	      0.00000000	      0.00000000
     15.01600000	      7.90238363	   1588.74370583	    -83.36984031	      2.07435365	      0.00000000	      1.11607652	      0.00000000	      9.81197646	      0.00000000	      0.00000000	      0.00000000	      0.00000000	      0.00000000	      0.00000000	      0.00000000	      0.00000000	      0.00000000	      0.00000000
     15.01700000	     13.69969900	   1582.24969145	    -82.44269786	      2.07133548	      0.00000000	      1.11604565	      0.00000000	      9.68600269	      0.00000000	      0.00000000	      0.00000000	      0.00000000	      0.00000000	      0.00000000	      0.00000000	      0.00000000	      0.00000000	      0.00000000
     15.01800000	     19.51313796	   1574.94314028	    -81.40652031	      2.06826826	      0.00000000	      1.11600925	      0.00000000	      9.55196149	      0.00000000	      0.00000000	      0.00000000	      0.00000000	      0.00000000	      0.00000000	      0.00000000	      0.00000000	      0.00000000	      0.00000000
     15.01900000	     25.32657692	   1567.63658912	    -80.37034276	      2.06520104	      0.00000000	      1.11597285	      0.00000000	      9.41792029	      0.00000000	      0.00000000	      0.00000000	      0.00000000	      0.00000000	      0.00000000	      0.00000000	      0.00000000	      0.00000000	      0.00000000
     15.02000000	     31.14001588	   1560.33003796	    -79.33416520	      2.06213382	      0.00000000	      1.11593645	      0.00000000	      9.28387909	      0.00000000	      0.00000000	      0.00000000	      0.00000000	      0.00000000	      0.00000000	      0.00000000	      0.00000000	      0.00000000	      0.00000000
     15.02100000	     36.92950059	   1551.82093163	    -78.14696954	      2.05898887	      0.00000000	      1.11589319	      0.00000000	      9.13925718	      0.00000000	      0.00000000	      0.00000000	      0.00000000	      0.00000000	      0.00000000	      0.00000000	      0.00000000	      0.00000000	      0.00000000
     15.02200000	     42.71898531	   1543.31182530	    -76.95977387	      2.05584392	      0.00000000	      1.11584993	      0.00000000	      8.99463528	      0.00000000	      0.00000000	      0.00000000	      0.00000000	      0.00000000	      0.00000000	      0.00000000	      0.00000000	      0.00000000	      0.00000000
     15.02300000	     48.50847002	   1534.80271896	    -75.77257820	      2.05269897	      0.00000000	      1.11580667	      0.00000000	      8.85001337	      0.00000000	      0.00000000	      0.00000000	      0.00000000	      0.00000000	      0.00000000	      0.00000000	      0.00000000	      0.00000000	      0.00000000
     15.02400000	     54.24741350	   1525.50676091	    -74.49497444	      2.04950056	      0.00000000	      1.11575986	      0.00000000	      8.69931763	      0.00000000	      0.00000000	      0.00000000	      0.00000000	      0.00000000	      0.00000000	      0.00000000	      0.00000000	      0.00000000	      0.00000000
     15.02500000	     59.96108635	   1515.81737701	    -73.17216664	      2.04627542	      0.00000000	      1.11571127	      0.00000000	      8.54558497	      0.00000000	      0.00000000	      0.00000000	      0.00000000	      0.00000000	      0.00000000	      0.00000000	      0.00000000	      0.00000000	      0.00000000
     15.02600000	     65.67475921	   1506.12799310	    -71.84935883	      2.04305027	      0.00000000	      1.11566267	      0.00000000	      8.39185231	      0.00000000	      0.00000000	      0.00000000	      0.00000000	      0.00000000	      0.00000000	      0.00000000	      0.00000000	      0.00000000	      0.00000000
     15.02700000	     71.34469348	   1496.05472930	    -70.48741343	      2.03979835	      0.00000000	      1.11561282	      0.00000000	      8.23555284	      0.00000000	      0.00000000	      0.00000000	      0.00000000	      0.00000000	      0.00000000	      0.00000000	      0.00000000	      0.00000000	      0.00000000
     15.02800000	     76.92715057	   1485.21370572	    -69.04719281	      2.03649289	      0.00000000	      1.11556047	      0.00000000	      8.07411977	      0.00000000	      0.00000000	      0.00000000	      0.00000000	      0.00000000	      0.00000000	      0.00000000	      0.00000000	      0.00000000	      0.00000000
     15.02900000	     82.50960765	   1474.37268213	    -67.60697220	      2.03318742	      0.00000000	      1.11550811	      0.00000000	      7.91268670	      0.00000000	      0.00000000	      0.00000000	      0.00000000	      0.00000000	      0.00000000	      0.00000000	      0.00000000	      0.00000000	      0.00000000
     15.03000000	     88.09206474	   1463.53165855	    -66.16675159	      2.02988195	      0.00000000	      1.11545575	      0.00000000	      7.75125362	      0.00000000	      0.00000000	      0.00000000	      0.00000000	      0.00000000	      0.00000000	      0.00000000	      0.00000000	      0.00000000	      0.00000000
     15.03100000	     93.48483175	   1451.57447520	    -64.62989958	      2.02649900	      0.00000000	      1.11540121	      0.00000000	      7.58347650	      0.00000000	      0.00000000	      0.00000000	      0.00000000	      0.00000000	      0.00000000	      0.00000000	      0.00000000	      0.00000000	      0.00000000
     15.03200000	     98.87759875	   1439.61729184	    -63.09304758	      2.02311604	      0.00000000	      1.11534666	      0.00000000	      7.41569937	      0.00000000	      0.00000000	      0.00000000	      0.00000000	      0.00000000	      0.00000000	      0.00000000	      0.00000000	      0.00000000	      0.00000000
     15.03300000	    104.27036576	   1427.66010849	    -61.55619557	      2.01973309	      0.00000000	      1.11529212	      0.00000000	      7.24792224	      0.00000000	      0.00000000	      0.00000000	      0.00000000	      0.00000000	      0.00000000	      0.00000000	      0.00000000	      0.00000000	      0.00000000
     15.03400000	    109.49617376	   1414.98743972	    -59.97026752	      2.01630270	      0.00000000	      1.11523716	      0.00000000	      7.07679539	      0.00000000	      0.00000000	      0.00000000	      0.00000000	      0.00000000	      0.00000000	      0.00000000	      0.00000000	      0.00000000	      0.00000000
     15.03500000	    114.63850226	   1401.95702823	    -58.35980145	      2.01284858	      0.00000000	      1.11518199	      0.00000000	      6.90399370	      0.00000000	      0.00000000	      0.00000000	      0.00000000	      0.00000000	      0.00000000	      0.00000000	      0.00000000	      0.00000000	      0.00000000
